<svg width="343" height="53" viewBox="0 0 343 53" fill="none" xmlns="http://www.w3.org/2000/svg">
<rect width="343" height="53" fill="#00FF38"/>
<path d="M0 26.4264C0 41.1486 10.9529 53 25.3607 53C41.2388 53 50.3539 43.9458 50.5745 32.3153L41.4593 32.1681C40.0626 40.6333 36.4607 44.8292 25.3607 44.8292C15.1429 44.8292 9.04166 37.0264 9.04166 26.4264C9.04166 16.0472 15.1429 8.17083 25.3607 8.17083C36.4607 8.17083 40.0626 11.7042 41.4593 20.8319L50.5745 20.6847C50.3539 9.05417 41.2388 0 25.3607 0C10.9529 0 0 11.8514 0 26.4264Z" fill="#0038FF"/>
<path d="M55.132 26.4264C55.132 41.1486 66.0849 53 80.4928 53C96.3708 53 105.486 43.9458 105.707 32.3153L96.5914 32.1681C95.1947 40.6333 91.5927 44.8292 80.4928 44.8292C70.275 44.8292 64.1737 37.0264 64.1737 26.4264C64.1737 16.0472 70.275 8.17083 80.4928 8.17083C91.5927 8.17083 95.1947 11.7042 96.5914 20.8319L105.707 20.6847C105.486 9.05417 96.3708 0 80.4928 0C66.0849 0 55.132 11.8514 55.132 26.4264Z" fill="#0038FF"/>
<path d="M112.396 52.2639H121.438V36.9528C123.128 43.2097 131.361 52.3375 144.887 52.3375C158.045 52.3375 163.191 44.7556 163.191 36.0694C163.191 29.5181 157.972 20.9792 147.68 20.9792H121.438V0.73611H112.396V52.2639ZM171.35 0.73611V52.2639H180.466V0.73611H171.35ZM122.173 27.4569H145.255C150.841 27.4569 154.37 31.5056 154.37 36.0694C154.37 41.075 151.282 44.5347 143.784 44.5347C134.89 44.5347 126.289 40.8542 122.173 27.4569Z" fill="#0038FF"/>
<path d="M236.661 0.73611H205.64L192.04 44.5347H186.968V52.2639H194.025C197.186 52.2639 199.832 50.2764 200.715 47.2583L211.961 7.87639H227.545V52.2639H236.661V0.73611Z" fill="#0038FF"/>
<path d="M252.86 0.73611H244.039V52.2639H252.86V22.5986H267.856L275.207 47.2583C276.089 50.2764 278.735 52.2639 281.896 52.2639H287.997V44.9028H283.881L274.913 17.6667L277.559 7.87639H287.997V0.73611H279.985C274.104 0.73611 269.326 4.34306 267.709 9.9375L266.091 15.4583H252.86V0.73611Z" fill="#0038FF"/>
<path d="M343 0.73611H323.888L307.789 46.2278H304.187V0.73611H295.366V52.2639H314.478L330.577 6.77222H334.179V52.2639H343V0.73611Z" fill="#0038FF"/>
</svg>
